<svg width="212" height="212" viewBox="0 0 212 212" fill="none" xmlns="http://www.w3.org/2000/svg">
<rect x="0.734375" y="0.723389" width="210.793" height="210.793" rx="16" fill="white"/>
<path d="M211.527 195.516C211.527 204.353 204.364 211.516 195.527 211.516H16.7344C7.89781 211.516 0.734375 204.353 0.734375 195.516V16.7234C0.734375 7.88683 7.89782 0.723389 16.7344 0.723389H195.527C204.364 0.723389 211.527 7.88683 211.527 16.7234V195.516ZM120.878 116.56C111.231 120.495 107.859 132.453 114.027 140.849L156.02 198.001C159.035 202.104 163.822 204.527 168.914 204.527H184.47C193.931 204.527 201.326 196.362 200.392 186.947L192.703 109.458C191.647 98.8128 180.644 92.1825 170.739 96.2227L120.878 116.56ZM21.7979 147.852C14.662 149.623 9.65137 156.029 9.65137 163.381V179.507C9.65137 189.711 19.074 197.308 29.0455 195.143L90.0172 181.908C97.3745 180.311 102.623 173.801 102.623 166.272V148.251C102.623 137.854 92.8612 130.218 82.7696 132.722L21.7979 147.852ZM11.0938 114.886C11.0938 125.827 21.8303 133.541 32.1996 130.049L148.007 91.0541C151.395 89.9134 154.303 87.6714 156.268 84.6855L186.165 39.2488C193.166 28.6098 185.535 14.4539 172.799 14.4539H27.0937C18.2572 14.4539 11.0938 21.6173 11.0938 30.4539V114.886Z" fill="black"/>
</svg>
