<svg width="246" height="50" viewBox="0 0 246 50" fill="none" xmlns="http://www.w3.org/2000/svg">
<path d="M10.7227 13.2688C13.0547 13.2688 14.9766 13.55 16.4883 14.1125C18.0117 14.675 19.1426 15.5247 19.8809 16.6614C20.6191 17.7981 20.9883 19.2336 20.9883 20.968C20.9883 22.1399 20.7656 23.1653 20.3203 24.0442C19.875 24.9231 19.2891 25.6672 18.5625 26.2766C17.8359 26.886 17.0508 27.384 16.207 27.7708L23.7656 38.968H17.7188L11.584 29.1067H8.68359V38.968H3.23438V13.2688H10.7227ZM10.3359 17.7336H8.68359V24.677H10.4414C12.2461 24.677 13.5352 24.3782 14.3086 23.7805C15.0938 23.1711 15.4863 22.2805 15.4863 21.1086C15.4863 19.8899 15.0645 19.0227 14.2207 18.5071C13.3887 17.9915 12.0938 17.7336 10.3359 17.7336ZM23.7656 19.3157H29.6367L33.3457 30.3723C33.4629 30.7239 33.5625 31.0813 33.6445 31.4446C33.7266 31.8079 33.7969 32.1829 33.8555 32.5696C33.9141 32.9563 33.9609 33.3606 33.9961 33.7825H34.1016C34.1719 33.1497 34.2656 32.5579 34.3828 32.0071C34.5117 31.4563 34.6699 30.9114 34.8574 30.3723L38.4961 19.3157H44.2441L35.9297 41.4817C35.4258 42.8411 34.7695 43.9719 33.9609 44.8743C33.1523 45.7883 32.2207 46.4739 31.166 46.9309C30.123 47.3879 28.9746 47.6165 27.7207 47.6165C27.1113 47.6165 26.584 47.5813 26.1387 47.511C25.6934 47.4524 25.3125 47.3879 24.9961 47.3176V43.0637C25.2422 43.1223 25.5527 43.175 25.9277 43.2219C26.3027 43.2688 26.6953 43.2922 27.1055 43.2922C27.8555 43.2922 28.5 43.134 29.0391 42.8176C29.5781 42.5012 30.0293 42.0735 30.3926 41.5344C30.7559 41.0071 31.043 40.427 31.2539 39.7942L31.5703 38.8274L23.7656 19.3157ZM55.1777 18.9465C56.9941 18.9465 58.5586 19.2981 59.8711 20.0012C61.1836 20.6926 62.1973 21.7004 62.9121 23.0247C63.627 24.3489 63.9844 25.9661 63.9844 27.8762V30.4778H51.3105C51.3691 31.9895 51.8203 33.179 52.6641 34.0461C53.5195 34.9016 54.7031 35.3293 56.2148 35.3293C57.4688 35.3293 58.6172 35.2004 59.6602 34.9426C60.7031 34.6848 61.7754 34.2981 62.877 33.7825V37.9309C61.9043 38.4114 60.8848 38.7629 59.8184 38.9856C58.7637 39.2083 57.4805 39.3196 55.9688 39.3196C54 39.3196 52.2539 38.9563 50.7305 38.2297C49.2188 37.5032 48.0293 36.3958 47.1621 34.9075C46.3066 33.4192 45.8789 31.5442 45.8789 29.2825C45.8789 26.9856 46.2656 25.0754 47.0391 23.552C47.8242 22.0168 48.9141 20.8684 50.3086 20.1067C51.7031 19.3333 53.3262 18.9465 55.1777 18.9465ZM55.2129 22.761C54.1699 22.761 53.3027 23.095 52.6113 23.7629C51.9316 24.4309 51.5391 25.4797 51.4336 26.9094H58.957C58.9453 26.1125 58.7988 25.4036 58.5176 24.7825C58.248 24.1614 57.8379 23.6692 57.2871 23.3059C56.748 22.9426 56.0566 22.761 55.2129 22.761ZM79.5059 18.9465C81.6035 18.9465 83.291 19.5208 84.5684 20.6692C85.8457 21.8059 86.4844 23.634 86.4844 26.1536V38.968H81.123V27.4895C81.123 26.0833 80.8652 25.0227 80.3496 24.3079C79.8457 23.593 79.0488 23.2356 77.959 23.2356C76.3184 23.2356 75.1992 23.7922 74.6016 24.9055C74.0039 26.0188 73.7051 27.6243 73.7051 29.7219V38.968H68.3438V19.3157H72.4395L73.1602 21.8293H73.459C73.8809 21.1497 74.4023 20.5989 75.0234 20.177C75.6562 19.7551 76.3535 19.4446 77.1152 19.2454C77.8887 19.0461 78.6855 18.9465 79.5059 18.9465ZM98.2266 39.3196C96.0352 39.3196 94.248 38.4641 92.8652 36.7532C91.4941 35.0305 90.8086 32.5051 90.8086 29.177C90.8086 25.8137 91.5059 23.2708 92.9004 21.5481C94.2949 19.8137 96.1172 18.9465 98.3672 18.9465C99.3047 18.9465 100.131 19.0754 100.846 19.3333C101.561 19.5911 102.176 19.9368 102.691 20.3704C103.219 20.804 103.664 21.2903 104.027 21.8293H104.203C104.133 21.4543 104.045 20.9036 103.939 20.177C103.846 19.4387 103.799 18.6829 103.799 17.9094V11.6165H109.178V38.968H105.064L104.027 36.4192H103.799C103.459 36.9583 103.031 37.4504 102.516 37.8958C102.012 38.3293 101.408 38.675 100.705 38.9329C100.002 39.1907 99.1758 39.3196 98.2266 39.3196ZM100.107 35.0481C101.572 35.0481 102.604 34.6145 103.201 33.7473C103.811 32.8684 104.133 31.55 104.168 29.7922V29.2122C104.168 27.302 103.875 25.843 103.289 24.8352C102.703 23.8157 101.613 23.3059 100.02 23.3059C98.8359 23.3059 97.9102 23.8157 97.2422 24.8352C96.5742 25.8547 96.2402 27.3254 96.2402 29.2473C96.2402 31.1692 96.5742 32.6165 97.2422 33.5891C97.9219 34.5618 98.877 35.0481 100.107 35.0481ZM122.889 18.9465C124.705 18.9465 126.27 19.2981 127.582 20.0012C128.895 20.6926 129.908 21.7004 130.623 23.0247C131.338 24.3489 131.695 25.9661 131.695 27.8762V30.4778H119.021C119.08 31.9895 119.531 33.179 120.375 34.0461C121.23 34.9016 122.414 35.3293 123.926 35.3293C125.18 35.3293 126.328 35.2004 127.371 34.9426C128.414 34.6848 129.486 34.2981 130.588 33.7825V37.9309C129.615 38.4114 128.596 38.7629 127.529 38.9856C126.475 39.2083 125.191 39.3196 123.68 39.3196C121.711 39.3196 119.965 38.9563 118.441 38.2297C116.93 37.5032 115.74 36.3958 114.873 34.9075C114.018 33.4192 113.59 31.5442 113.59 29.2825C113.59 26.9856 113.977 25.0754 114.75 23.552C115.535 22.0168 116.625 20.8684 118.02 20.1067C119.414 19.3333 121.037 18.9465 122.889 18.9465ZM122.924 22.761C121.881 22.761 121.014 23.095 120.322 23.7629C119.643 24.4309 119.25 25.4797 119.145 26.9094H126.668C126.656 26.1125 126.51 25.4036 126.229 24.7825C125.959 24.1614 125.549 23.6692 124.998 23.3059C124.459 22.9426 123.768 22.761 122.924 22.761ZM141.416 38.968H136.055V11.6165H141.416V38.968Z" fill="#333333"/>
<path d="M154.861 13.2688C156.9 13.2688 158.6 13.4915 159.959 13.9368C161.33 14.3821 162.361 15.1145 163.053 16.134C163.744 17.1536 164.09 18.5305 164.09 20.2649C164.09 21.5657 163.85 22.6848 163.369 23.6223C162.9 24.5481 162.25 25.3098 161.418 25.9075C160.586 26.5051 159.625 26.9622 158.535 27.2786L165.584 38.968H163.439L156.812 27.7883H150.432V38.968H148.621V13.2688H154.861ZM154.686 14.8684H150.432V26.1887H155.547C157.645 26.1887 159.279 25.6848 160.451 24.677C161.635 23.6692 162.227 22.2219 162.227 20.3352C162.227 18.261 161.605 16.8313 160.363 16.0461C159.121 15.261 157.229 14.8684 154.686 14.8684ZM185.43 29.3879C185.43 30.8645 185.248 32.2122 184.885 33.4309C184.521 34.6379 183.982 35.6809 183.268 36.5598C182.553 37.4387 181.662 38.1184 180.596 38.5989C179.541 39.0793 178.311 39.3196 176.904 39.3196C175.568 39.3196 174.379 39.0852 173.336 38.6165C172.293 38.136 171.408 37.4563 170.682 36.5774C169.967 35.6985 169.422 34.6555 169.047 33.4485C168.672 32.2297 168.484 30.8762 168.484 29.3879C168.484 27.3372 168.824 25.5735 169.504 24.0969C170.195 22.6086 171.18 21.4719 172.457 20.6868C173.746 19.8899 175.287 19.4915 177.08 19.4915C178.932 19.4915 180.473 19.9133 181.703 20.7571C182.945 21.5891 183.877 22.7493 184.498 24.2375C185.119 25.7258 185.43 27.4426 185.43 29.3879ZM170.312 29.3879C170.312 31.0637 170.553 32.5286 171.033 33.7825C171.514 35.0364 172.24 36.0149 173.213 36.718C174.197 37.4211 175.439 37.7727 176.939 37.7727C178.475 37.7727 179.734 37.4211 180.719 36.718C181.703 36.0149 182.43 35.0305 182.898 33.7649C183.367 32.4993 183.602 31.0403 183.602 29.3879C183.602 27.7825 183.379 26.3528 182.934 25.0989C182.488 23.845 181.785 22.8606 180.824 22.1458C179.863 21.4192 178.609 21.0559 177.062 21.0559C174.848 21.0559 173.166 21.7942 172.018 23.2708C170.881 24.7473 170.312 26.7864 170.312 29.3879ZM198.367 39.3196C196.469 39.3196 194.863 38.927 193.551 38.1418C192.25 37.345 191.266 36.2141 190.598 34.7493C189.941 33.2727 189.613 31.5266 189.613 29.511C189.613 27.4133 189.994 25.6204 190.756 24.1321C191.518 22.6321 192.59 21.4836 193.973 20.6868C195.355 19.8899 196.979 19.4915 198.842 19.4915C199.756 19.4915 200.605 19.5735 201.391 19.7375C202.176 19.9016 202.885 20.1301 203.518 20.4231L203.043 21.9875C202.387 21.6946 201.689 21.4719 200.951 21.3196C200.213 21.1672 199.504 21.0911 198.824 21.0911C197.254 21.0911 195.918 21.4368 194.816 22.1282C193.727 22.8079 192.889 23.7805 192.303 25.0461C191.729 26.3 191.441 27.7825 191.441 29.4934C191.441 31.0989 191.688 32.5227 192.18 33.7649C192.672 34.9954 193.428 35.968 194.447 36.6829C195.467 37.386 196.773 37.7375 198.367 37.7375C199.293 37.7375 200.172 37.6438 201.004 37.4563C201.848 37.2688 202.615 37.0286 203.307 36.7356V38.3528C202.686 38.634 201.965 38.8625 201.145 39.0383C200.336 39.2258 199.41 39.3196 198.367 39.3196ZM209.6 11.6165V20.5461C209.6 21.0618 209.588 21.5422 209.564 21.9875C209.553 22.4329 209.529 22.884 209.494 23.3411H209.617C209.934 22.6145 210.385 21.9641 210.971 21.3899C211.568 20.8157 212.301 20.3586 213.168 20.0188C214.047 19.679 215.061 19.509 216.209 19.509C217.662 19.509 218.881 19.761 219.865 20.2649C220.861 20.7571 221.617 21.5129 222.133 22.5325C222.648 23.552 222.906 24.8645 222.906 26.47V38.968H221.148V26.5754C221.148 24.677 220.715 23.2825 219.848 22.3918C218.98 21.5012 217.721 21.0559 216.068 21.0559C214.662 21.0559 213.479 21.3313 212.518 21.8821C211.557 22.4211 210.83 23.2415 210.338 24.343C209.846 25.4329 209.6 26.7981 209.6 28.4387V38.968H207.824V11.6165H209.6ZM235.773 19.5266C237.871 19.5266 239.441 20.054 240.484 21.1086C241.527 22.1633 242.049 23.845 242.049 26.1536V38.968H240.678L240.361 35.6282H240.256C239.846 36.343 239.348 36.9817 238.762 37.5442C238.176 38.095 237.455 38.5286 236.6 38.845C235.756 39.1614 234.725 39.3196 233.506 39.3196C232.275 39.3196 231.221 39.1145 230.342 38.7043C229.475 38.2942 228.801 37.6965 228.32 36.9114C227.852 36.1262 227.617 35.1711 227.617 34.0461C227.617 32.1477 228.402 30.7063 229.973 29.7219C231.543 28.7258 233.799 28.1633 236.74 28.0344L240.291 27.8586V26.47C240.291 24.5129 239.904 23.1184 239.131 22.2864C238.357 21.4543 237.215 21.0383 235.703 21.0383C234.719 21.0383 233.77 21.1672 232.855 21.425C231.953 21.6711 231.033 22.0286 230.096 22.4973L229.533 21.0208C230.447 20.5872 231.426 20.2297 232.469 19.9485C233.523 19.6672 234.625 19.5266 235.773 19.5266ZM240.273 29.2473L236.934 29.3879C234.508 29.5051 232.662 29.9387 231.396 30.6887C230.131 31.4387 229.498 32.5637 229.498 34.0637C229.498 35.2708 229.873 36.1965 230.623 36.8411C231.385 37.4856 232.439 37.8079 233.787 37.8079C235.885 37.8079 237.484 37.2102 238.586 36.0149C239.699 34.8196 240.262 33.1907 240.273 31.1282V29.2473Z" fill="#5C5C5C"/>
</svg>
